<svg width="50" height="50" viewBox="0 0 50 50" fill="none" xmlns="http://www.w3.org/2000/svg">
<path d="M11.125 41.6667C10.2917 41.6667 9.5625 41.3542 8.9375 40.7292C8.3125 40.1042 8 39.375 8 38.5417V11.4583C8 10.625 8.3125 9.89583 8.9375 9.27083C9.5625 8.64583 10.2917 8.33333 11.125 8.33333H16.8542V7.8125C16.8542 5.625 17.6094 3.77604 19.1198 2.26563C20.6302 0.755208 22.4792 0 24.6667 0C26.8542 0 28.7031 0.755208 30.2135 2.26563C31.724 3.77604 32.4792 5.625 32.4792 7.8125V8.33333H38.2083C39.0417 8.33333 39.7708 8.64583 40.3958 9.27083C41.0208 9.89583 41.3333 10.625 41.3333 11.4583V38.5417C41.3333 39.375 41.0208 40.1042 40.3958 40.7292C39.7708 41.3542 39.0417 41.6667 38.2083 41.6667H11.125ZM11.125 38.5417H38.2083V11.4583H32.4792V16.1458C32.4792 16.5885 32.3286 16.9596 32.0273 17.2591C31.7261 17.5586 31.3528 17.7083 30.9076 17.7083C30.4622 17.7083 30.092 17.5586 29.7969 17.2591C29.5017 16.9596 29.3542 16.5885 29.3542 16.1458V11.4583H19.9792V16.1458C19.9792 16.5885 19.8286 16.9596 19.5273 17.2591C19.2261 17.5586 18.8528 17.7083 18.4076 17.7083C17.9622 17.7083 17.592 17.5586 17.2969 17.2591C17.0017 16.9596 16.8542 16.5885 16.8542 16.1458V11.4583H11.125V38.5417ZM19.9792 8.33333H29.3542V7.8125C29.3542 6.49306 28.9028 5.38195 28 4.47917C27.0972 3.57639 25.9861 3.125 24.6667 3.125C23.3472 3.125 22.2361 3.57639 21.3333 4.47917C20.4306 5.38195 19.9792 6.49306 19.9792 7.8125V8.33333Z" fill="#D7CEC9"/>
</svg>
